<svg width="48" height="48" viewBox="0 0 48 48" fill="none" xmlns="http://www.w3.org/2000/svg">
<path d="M22.272 20.032L18.016 30H15.744L20.032 20.288H14.56V18.368H22.272V20.032ZM31.4536 20.272H26.2696V23.008C26.4936 22.7307 26.8136 22.5067 27.2296 22.336C27.6456 22.1547 28.0883 22.064 28.5576 22.064C29.411 22.064 30.1096 22.2507 30.6536 22.624C31.1976 22.9973 31.5923 23.4773 31.8376 24.064C32.083 24.64 32.2056 25.2587 32.2056 25.92C32.2056 27.1467 31.8536 28.1333 31.1496 28.88C30.4563 29.6267 29.4643 30 28.1736 30C26.9576 30 25.987 29.696 25.2616 29.088C24.5363 28.48 24.1256 27.6853 24.0296 26.704H26.2056C26.3016 27.1307 26.515 27.472 26.8456 27.728C27.187 27.984 27.619 28.112 28.1416 28.112C28.771 28.112 29.2456 27.9147 29.5656 27.52C29.8856 27.1253 30.0456 26.6027 30.0456 25.952C30.0456 25.2907 29.8803 24.7893 29.5496 24.448C29.2296 24.096 28.755 23.92 28.1256 23.92C27.6776 23.92 27.3043 24.032 27.0056 24.256C26.707 24.48 26.4936 24.7787 26.3656 25.152H24.2216V18.304H31.4536V20.272Z" fill="#69C620"/>
<path d="M48 24C48 37.2548 37.2548 48 24 48C10.7452 48 0 37.2548 0 24C0 10.7452 10.7452 0 24 0C37.2548 0 48 10.7452 48 24ZM4.15989 24C4.15989 34.9574 13.0426 43.8401 24 43.8401C34.9574 43.8401 43.8401 34.9574 43.8401 24C43.8401 13.0426 34.9574 4.15989 24 4.15989C13.0426 4.15989 4.15989 13.0426 4.15989 24Z" fill="#69C620" fill-opacity="0.21"/>
<path d="M48 24C48 19.2532 46.5924 14.6131 43.9553 10.6663C41.3181 6.71953 37.5698 3.64339 33.1844 1.82689C28.799 0.010388 23.9734 -0.464892 19.3178 0.461153C14.6623 1.3872 10.3859 3.67298 7.02944 7.02944C3.67298 10.3859 1.3872 14.6623 0.461153 19.3178C-0.464892 23.9734 0.0103881 28.799 1.82689 33.1844C3.64339 37.5698 6.71953 41.3181 10.6663 43.9553C14.6131 46.5924 19.2532 48 24 48V43.8401C20.076 43.8401 16.2401 42.6765 12.9774 40.4965C9.71473 38.3164 7.17178 35.2178 5.67013 31.5925C4.16847 27.9672 3.77557 23.978 4.54111 20.1294C5.30664 16.2808 7.19623 12.7456 9.97092 9.97092C12.7456 7.19623 16.2808 5.30664 20.1294 4.54111C23.978 3.77557 27.9672 4.16847 31.5925 5.67013C35.2178 7.17178 38.3164 9.71473 40.4965 12.9774C42.6765 16.2401 43.8401 20.076 43.8401 24H48Z" fill="#69C620"/>
</svg>
