<svg width="14" height="16" viewBox="0 0 14 16" fill="none" xmlns="http://www.w3.org/2000/svg">
<mask id="mask0_15_1003" style="mask-type:luminance" maskUnits="userSpaceOnUse" x="0" y="0" width="14" height="16">
<path d="M9.66653 0H1.66667C0.746223 0 0 0.746232 0 1.66667V14.3333C0 15.2538 0.746223 16 1.66667 16H11.6667C12.5871 16 13.3333 15.2538 13.3333 14.3333V3.66667L9.66653 0Z" fill="white"/>
</mask>
<g mask="url(#mask0_15_1003)">
<mask id="mask1_15_1003" style="mask-type:luminance" maskUnits="userSpaceOnUse" x="0" y="0" width="14" height="6">
<path d="M0 6H13.3332V0.000133514H0V6Z" fill="white"/>
</mask>
<g mask="url(#mask1_15_1003)">
<path d="M1.66663 15.8335C0.839413 15.8335 0.166626 15.1606 0.166626 14.3335V1.66683C0.166626 0.83963 0.839413 0.16683 1.66663 0.16683H9.59749L13.1666 3.73583V14.3335C13.1666 15.1606 12.4937 15.8335 11.6666 15.8335H1.66663Z" fill="#3098D8"/>
<path d="M9.66653 0H1.66667C0.746223 0 0 0.746232 0 1.66667V14.3333C0 15.2538 0.746223 16 1.66667 16H11.6667C12.5871 16 13.3333 15.2538 13.3333 14.3333V3.66667L9.66653 0ZM9.5285 0.333332L13 3.8047V14.3333C13 15.0685 12.4018 15.6667 11.6667 15.6667H1.66667C0.93151 15.6667 0.333333 15.0685 0.333333 14.3333V1.66667C0.333333 0.931499 0.93151 0.333332 1.66667 0.333332H9.5285Z" fill="#2C8AC4"/>
<path d="M10.145 3.16761L13.3715 6.39404V3.16761H10.145Z" fill="#2C8AC4"/>
<path d="M13.3334 3.6665H11.3334C10.413 3.6665 9.66675 2.92027 9.66675 1.99984V-0.000162601H13.3334V3.6665Z" fill="#97CCEC"/>
</g>
</g>
<mask id="mask2_15_1003" style="mask-type:luminance" maskUnits="userSpaceOnUse" x="0" y="0" width="14" height="16">
<path d="M9.66653 0H1.66667C0.746223 0 0 0.746232 0 1.66667V14.3333C0 15.2538 0.746223 16 1.66667 16H11.6667C12.5871 16 13.3333 15.2538 13.3333 14.3333V3.66667L9.66653 0Z" fill="white"/>
</mask>
<g mask="url(#mask2_15_1003)">
<path d="M2.27022 2.43997V3.628H2.43428C2.60422 3.628 2.74382 3.5815 2.85332 3.4888C2.96268 3.39597 3.01738 3.24113 3.01738 3.02433C3.01738 2.89843 2.99095 2.78697 2.93822 2.68983C2.88548 2.59257 2.80905 2.5267 2.70905 2.49193C2.60878 2.4573 2.51332 2.43997 2.42258 2.43997H2.27022ZM1.85278 2.0767H2.50905C2.78925 2.0767 3.01488 2.1651 3.18572 2.3418C3.35668 2.5185 3.44212 2.75143 3.44212 3.0405C3.44212 3.3306 3.35382 3.56303 3.17778 3.73777C3.00135 3.91263 2.76685 4 2.47388 4H1.85278V2.0767Z" fill="white"/>
<path d="M4.67255 2.43997C4.51148 2.43697 4.38151 2.4927 4.28281 2.6069C4.18425 2.72124 4.13491 2.86864 4.13491 3.04934C4.13491 3.22017 4.18531 3.36184 4.28581 3.4741C4.38648 3.58647 4.51328 3.64257 4.66668 3.64257C4.82788 3.64257 4.95781 3.58724 5.05705 3.47617C5.15615 3.36564 5.20575 3.21927 5.20575 3.03764C5.20575 2.85887 5.15705 2.71537 5.05991 2.6069C4.96278 2.49857 4.83375 2.44284 4.67255 2.43997ZM3.70288 3.03764C3.70288 2.7534 3.79675 2.51887 3.98465 2.33374C4.17268 2.1487 4.39571 2.05614 4.65351 2.05614C4.93868 2.05614 5.17448 2.1491 5.36095 2.3353C5.54755 2.52124 5.64078 2.75637 5.64078 3.0405C5.64078 3.3228 5.54845 3.55717 5.36395 3.74364C5.17945 3.9302 4.94688 4.02344 4.66668 4.02344C4.38648 4.02344 4.15561 3.93074 3.97461 3.74517C3.79338 3.5595 3.70288 3.3237 3.70288 3.03764Z" fill="white"/>
<path d="M7.42344 2.17923V2.64797C7.21551 2.52297 7.03334 2.46047 6.87711 2.46047C6.72084 2.46047 6.59584 2.51427 6.50211 2.62167C6.40834 2.7291 6.36148 2.87363 6.36148 3.05527C6.36148 3.22713 6.41081 3.36463 6.50938 3.4675C6.60808 3.57063 6.73984 3.62207 6.90494 3.62207C7.04948 3.62207 7.22241 3.564 7.42344 3.44787V3.9136C7.19794 3.98887 7.00991 4.02637 6.85951 4.02637C6.60078 4.02637 6.38101 3.93157 6.20041 3.7416C6.01968 3.55163 5.92944 3.31987 5.92944 3.04643C5.92944 2.76817 6.02138 2.53263 6.20534 2.33953C6.38948 2.1468 6.61341 2.05033 6.87711 2.05033C7.04701 2.05033 7.22918 2.0933 7.42344 2.17923Z" fill="white"/>
</g>
<mask id="mask3_15_1003" style="mask-type:luminance" maskUnits="userSpaceOnUse" x="0" y="0" width="14" height="16">
<path d="M9.66653 0H1.66667C0.746223 0 0 0.746232 0 1.66667V14.3333C0 15.2538 0.746223 16 1.66667 16H11.6667C12.5871 16 13.3333 15.2538 13.3333 14.3333V3.66667L9.66653 0Z" fill="white"/>
</mask>
<g mask="url(#mask3_15_1003)">
<mask id="mask4_15_1003" style="mask-type:luminance" maskUnits="userSpaceOnUse" x="0" y="6" width="14" height="10">
<path d="M0 16H13.3333V6H0V16Z" fill="white"/>
</mask>
<g mask="url(#mask4_15_1003)">
<path d="M1.66663 15.8335C0.839413 15.8335 0.166626 15.1606 0.166626 14.3335V1.66683C0.166626 0.83973 0.839413 0.16683 1.66663 0.16683H9.59749L13.1666 3.73583V14.3335C13.1666 15.1606 12.4937 15.8335 11.6666 15.8335H1.66663Z" fill="white"/>
<path d="M9.66653 0H1.66667C0.746223 0 0 0.746232 0 1.66667V14.3333C0 15.2538 0.746223 16 1.66667 16H11.6667C12.5871 16 13.3333 15.2538 13.3333 14.3333V3.66667L9.66653 0ZM9.5285 0.333332L13 3.8047V14.3333C13 15.0685 12.4018 15.6667 11.6667 15.6667H1.66667C0.93151 15.6667 0.333333 15.0685 0.333333 14.3333V1.66667C0.333333 0.931499 0.93151 0.333332 1.66667 0.333332H9.5285Z" fill="#BBBBBB"/>
<path d="M10.8334 9H2.66675C2.39058 9 2.16675 8.77617 2.16675 8.5C2.16675 8.22383 2.39058 8 2.66675 8H10.8334C11.1096 8 11.3334 8.22383 11.3334 8.5C11.3334 8.77617 11.1096 9 10.8334 9Z" fill="#D8D8D8"/>
<path d="M10.8334 11H2.66675C2.39058 11 2.16675 10.7762 2.16675 10.5C2.16675 10.2238 2.39058 10 2.66675 10H10.8334C11.1096 10 11.3334 10.2238 11.3334 10.5C11.3334 10.7762 11.1096 11 10.8334 11Z" fill="#D8D8D8"/>
<path d="M7.33342 13H2.66675C2.39058 13 2.16675 12.7762 2.16675 12.5C2.16675 12.2238 2.39058 12 2.66675 12H7.33342C7.60958 12 7.83342 12.2238 7.83342 12.5C7.83342 12.7762 7.60958 13 7.33342 13Z" fill="#D8D8D8"/>
</g>
</g>
</svg>
