<svg width="16" height="16" viewBox="0 0 16 16" fill="none" xmlns="http://www.w3.org/2000/svg">
<path d="M12.4773 0.0410156L15.6567 3.3553V15.9587H3.77954V15.9999H15.6973V3.39702L12.4773 0.0410156Z" fill="#909090"/>
<path d="M12.4377 0H3.73889V15.9589H15.6566V3.356L12.4377 0Z" fill="#F4F4F4"/>
<path d="M3.65143 0.857422H0V4.75856H11.4857V0.857422H3.65143Z" fill="#7A7B7C"/>
<path d="M11.5469 4.69209H0.0743408V0.788086H11.5469V4.69209Z" fill="#DD2025"/>
<path d="M3.8782 1.44824H3.86106H3.74278H3.13135V4.1911H3.71878V3.26596L3.84849 3.27339C3.97453 3.27122 4.09939 3.24864 4.21821 3.20653C4.32238 3.1707 4.41821 3.11413 4.49992 3.04024C4.58306 2.96985 4.64861 2.88102 4.69135 2.78081C4.74866 2.61424 4.76913 2.43721 4.75135 2.26196C4.74778 2.13676 4.72583 2.01277 4.6862 1.89396C4.65013 1.80819 4.5966 1.73087 4.52901 1.66692C4.46143 1.60298 4.38126 1.5538 4.29363 1.52253C4.21787 1.4951 4.13959 1.47519 4.05992 1.4631C3.99959 1.45379 3.93867 1.44883 3.87763 1.44824M3.76963 2.7591H3.71878V1.91339H3.82906C3.87774 1.90988 3.92658 1.91735 3.97198 1.93525C4.01737 1.95315 4.05817 1.98103 4.09135 2.01681C4.1601 2.10882 4.19683 2.22082 4.19592 2.33567C4.19592 2.47624 4.19592 2.60367 4.06906 2.69339C3.97767 2.74365 3.87365 2.76685 3.76963 2.7591Z" fill="#464648"/>
<path d="M5.86735 1.44068C5.80392 1.44068 5.74221 1.44525 5.69878 1.44696L5.56278 1.45039H5.11707V4.19325H5.64164C5.84211 4.19874 6.0417 4.16477 6.22907 4.09325C6.37987 4.03343 6.51341 3.93701 6.61764 3.81268C6.71899 3.68722 6.79173 3.54116 6.83078 3.38468C6.87567 3.20746 6.89757 3.0252 6.89592 2.84239C6.90701 2.62648 6.8903 2.41004 6.84621 2.19839C6.80437 2.0426 6.72602 1.89902 6.61764 1.77953C6.5326 1.68306 6.42851 1.60523 6.31192 1.55096C6.2118 1.50463 6.10647 1.47048 5.99821 1.44925C5.95516 1.44214 5.91155 1.43889 5.86792 1.43953M5.76392 3.68925H5.70678V1.93839H5.71421C5.83201 1.92484 5.95121 1.94609 6.05707 1.99953C6.13459 2.06144 6.19775 2.13942 6.24221 2.22811C6.29018 2.32144 6.31784 2.42388 6.32335 2.52868C6.32849 2.65439 6.32335 2.75725 6.32335 2.84239C6.32568 2.94047 6.31937 3.03856 6.30449 3.13553C6.28688 3.23509 6.25432 3.33142 6.20792 3.42125C6.1554 3.50477 6.08444 3.57514 6.00049 3.62696C5.92999 3.67256 5.84651 3.69383 5.76278 3.68753" fill="#464648"/>
<path d="M8.66555 1.4502H7.27698V4.19305H7.86441V3.10505H8.60726V2.59534H7.86441V1.95991H8.66441V1.4502" fill="#464648"/>
<path d="M11.1521 10.4316C11.1521 10.4316 12.9738 10.1014 12.9738 10.7236C12.9738 11.3459 11.8453 11.0928 11.1521 10.4316ZM9.80527 10.4791C9.51584 10.543 9.23377 10.6367 8.96356 10.7585L9.19213 10.2442C9.4207 9.72993 9.65784 9.02879 9.65784 9.02879C9.93059 9.48783 10.2479 9.91887 10.6053 10.3156C10.3358 10.3558 10.0687 10.4108 9.80527 10.4802V10.4791ZM9.08413 6.76479C9.08413 6.2225 9.25956 6.0745 9.39613 6.0745C9.5327 6.0745 9.68641 6.14022 9.69156 6.61107C9.64706 7.08454 9.54793 7.55126 9.39613 8.00193C9.1882 7.62355 9.08059 7.19824 9.08356 6.7665L9.08413 6.76479ZM6.42756 12.7739C5.8687 12.4396 7.59956 11.4105 7.91327 11.3774C7.91156 11.3779 7.0127 13.1236 6.42756 12.7739ZM13.5058 10.7974C13.5001 10.7402 13.4487 10.1076 12.323 10.1345C11.8538 10.1269 11.3848 10.16 10.9213 10.2334C10.4723 9.78101 10.0856 9.2708 9.77156 8.71621C9.96943 8.14446 10.0892 7.5486 10.1276 6.94479C10.111 6.25907 9.94699 5.86593 9.42127 5.87164C8.89556 5.87736 8.81899 6.33736 8.88813 7.02193C8.95586 7.48196 9.08361 7.93112 9.26813 8.35793C9.26813 8.35793 9.02527 9.11393 8.70413 9.86593C8.38299 10.6179 8.16356 11.0122 8.16356 11.0122C7.60512 11.194 7.07941 11.4641 6.60642 11.8122C6.13556 12.2505 5.94413 12.5871 6.19213 12.9236C6.40584 13.2139 7.15384 13.2796 7.82242 12.4036C8.17765 11.9512 8.50218 11.4755 8.79384 10.9796C8.79384 10.9796 9.81327 10.7002 10.1304 10.6236C10.4476 10.5471 10.831 10.4865 10.831 10.4865C10.831 10.4865 11.7618 11.4231 12.6596 11.3899C13.5573 11.3568 13.5138 10.8534 13.5081 10.7985" fill="#DD2025"/>
<path d="M12.3938 0.0439453V3.39995H15.6127L12.3938 0.0439453Z" fill="#909090"/>
<path d="M12.4379 0V3.356H15.6567L12.4379 0Z" fill="#F4F4F4"/>
<path d="M3.83438 1.4043H3.81724H3.69895H3.08752V4.14715H3.67724V3.22258L3.80752 3.23001C3.93357 3.22784 4.05842 3.20526 4.17724 3.16315C4.2814 3.12731 4.37724 3.07074 4.45895 2.99687C4.54147 2.92629 4.60642 2.83747 4.64867 2.73744C4.70598 2.57087 4.72645 2.39384 4.70867 2.21858C4.7051 2.09339 4.68315 1.9694 4.64352 1.85058C4.60745 1.76482 4.55392 1.6875 4.48633 1.62355C4.41874 1.5596 4.33858 1.51043 4.25095 1.47915C4.17484 1.45146 4.09617 1.43136 4.0161 1.41915C3.95577 1.40985 3.89485 1.40488 3.83381 1.4043M3.72581 2.71515H3.67495V1.86944H3.78581C3.83448 1.86593 3.88333 1.8734 3.92872 1.8913C3.97412 1.90921 4.01492 1.93708 4.0481 1.97287C4.11685 2.06488 4.15358 2.17687 4.15267 2.29173C4.15267 2.4323 4.15267 2.55973 4.02581 2.64944C3.93442 2.69971 3.83039 2.72234 3.72638 2.71458" fill="white"/>
<path d="M5.82352 1.39673C5.76009 1.39673 5.69838 1.4013 5.65495 1.40302L5.52067 1.40645H5.07495V4.1493H5.59952C5.79999 4.1548 5.99959 4.12082 6.18695 4.0493C6.33776 3.98949 6.4713 3.89306 6.57552 3.76873C6.67687 3.64328 6.74961 3.49721 6.78867 3.34073C6.83356 3.16351 6.85545 2.98125 6.85381 2.79845C6.86489 2.58254 6.84818 2.3661 6.80409 2.15445C6.76226 1.99865 6.6839 1.85507 6.57552 1.73559C6.49049 1.63911 6.3864 1.56129 6.26981 1.50702C6.16968 1.46068 6.06436 1.42654 5.95609 1.4053C5.91304 1.39819 5.86944 1.39494 5.82581 1.39559M5.72181 3.6453H5.66467V1.89445H5.67209C5.7899 1.88089 5.90909 1.90215 6.01495 1.95559C6.09247 2.01749 6.15564 2.09547 6.20009 2.18416C6.24807 2.27749 6.27572 2.37993 6.28124 2.48473C6.28638 2.61045 6.28124 2.7133 6.28124 2.79845C6.28356 2.89652 6.27725 2.99462 6.26238 3.09159C6.24477 3.19115 6.21221 3.28747 6.16581 3.3773C6.11329 3.46082 6.04233 3.53119 5.95838 3.58302C5.88788 3.62862 5.80439 3.64989 5.72067 3.64359" fill="white"/>
<path d="M8.62173 1.40625H7.23315V4.14911H7.82058V3.06111H8.56344V2.55139H7.82058V1.91596H8.62058V1.40625" fill="white"/>
</svg>
