<svg width="16" height="16" viewBox="0 0 16 16" fill="none" xmlns="http://www.w3.org/2000/svg">
<path d="M9.8351 7.92277C9.7571 7.84477 9.7571 7.71778 9.8351 7.63978L13.6498 3.82894C14.1167 3.35996 14.1167 2.60099 13.6498 2.13201C13.1828 1.66303 12.4269 1.66303 11.9599 2.13201L8.14224 5.94585C8.06424 6.02385 7.93725 6.02385 7.85926 5.94585L4.04958 2.13101C3.58062 1.66403 2.82068 1.66403 2.35172 2.13101C1.88276 2.59799 1.88276 3.35396 2.35172 3.82094L6.1654 7.63778C6.2434 7.71578 6.2434 7.84277 6.1654 7.92077L2.35072 11.7316C1.88376 12.2006 1.88376 12.9596 2.35072 13.4285C2.81768 13.8975 3.57362 13.8975 4.04058 13.4285L7.85726 9.6147C7.93526 9.5367 8.06224 9.5367 8.14024 9.6147L11.9509 13.4295C12.4199 13.8965 13.1788 13.8965 13.6478 13.4295C14.1167 12.9626 14.1167 12.2066 13.6478 11.7396L9.8351 7.92277Z" fill="url(#paint0_linear_15_1047)"/>
<path opacity="0.2" d="M3.20065 2.0803C3.44163 2.0803 3.66761 2.17331 3.8366 2.34232L7.64728 6.15764C7.74127 6.25265 7.86726 6.30465 8.00125 6.30465C8.13424 6.30465 8.26023 6.25265 8.35422 6.15864L12.1719 2.34432C12.3409 2.17431 12.5659 2.0813 12.8048 2.0813C13.0438 2.0813 13.2688 2.17431 13.4378 2.34432C13.7878 2.69535 13.7878 3.2674 13.4388 3.61743L9.62311 7.42774C9.42813 7.62276 9.42813 7.93979 9.62311 8.1348L13.4368 11.9531C13.6068 12.1221 13.6998 12.3472 13.6998 12.5862C13.6998 12.8252 13.6068 13.0502 13.4368 13.2192C13.2668 13.3882 13.0408 13.4822 12.7998 13.4822C12.5589 13.4822 12.3329 13.3892 12.1639 13.2202L8.35322 9.40391C8.25923 9.3089 8.13324 9.2569 7.99925 9.2569C7.86626 9.2569 7.74027 9.3089 7.64628 9.40291L3.8286 13.2172C3.65961 13.3872 3.43463 13.4802 3.19565 13.4802C2.95667 13.4802 2.73169 13.3872 2.5627 13.2172C2.21273 12.8662 2.21273 12.2941 2.5617 11.9441L6.37638 8.1328C6.57137 7.93779 6.57137 7.62076 6.37638 7.42574L2.5637 3.60843C2.39372 3.43941 2.30072 3.21439 2.30072 2.97537C2.30072 2.73635 2.39372 2.51133 2.5637 2.34232C2.73369 2.17331 2.95967 2.0803 3.20065 2.0803ZM3.20065 1.78027C2.89368 1.78027 2.5867 1.89728 2.35172 2.1303C1.88276 2.59734 1.88276 3.3534 2.35172 3.82044L6.1654 7.63776C6.2434 7.71577 6.2434 7.84278 6.1654 7.92079L2.35072 11.7321C1.88376 12.2011 1.88376 12.9602 2.35072 13.4292C2.5837 13.6633 2.88968 13.7803 3.19565 13.7803C3.50162 13.7803 3.8076 13.6633 4.04058 13.4292L7.85726 9.61493C7.89626 9.57592 7.94725 9.55592 7.99825 9.55592C8.04925 9.55592 8.10024 9.57592 8.13924 9.61493L11.9499 13.4302C12.1839 13.6633 12.4909 13.7803 12.7988 13.7803C13.1068 13.7803 13.4128 13.6633 13.6478 13.4302C14.1167 12.9632 14.1167 12.2071 13.6478 11.7401L9.8351 7.92279C9.7571 7.84478 9.7571 7.71777 9.8351 7.63976L13.6498 3.82844C14.1167 3.35941 14.1167 2.60034 13.6498 2.1313C13.4168 1.89728 13.1108 1.78027 12.8048 1.78027C12.4989 1.78027 12.1929 1.89728 11.9599 2.1313L8.14224 5.94562C8.10324 5.98462 8.05225 6.00463 8.00125 6.00463C7.95025 6.00463 7.89926 5.98462 7.86026 5.94562L4.04958 2.1303C3.8146 1.89728 3.50762 1.78027 3.20065 1.78027Z" fill="#424242"/>
<defs>
<linearGradient id="paint0_linear_15_1047" x1="8.00025" y1="1.67131" x2="8.00025" y2="13.5925" gradientUnits="userSpaceOnUse">
<stop stop-color="#FF5252"/>
<stop offset="0.4455" stop-color="#EE3030"/>
<stop offset="1" stop-color="#D50000"/>
</linearGradient>
</defs>
</svg>
