<svg width="40" height="40" viewBox="0 0 40 40" fill="none" xmlns="http://www.w3.org/2000/svg">
<circle cx="20" cy="20" r="20" fill="#B3C6ED"/>
<path d="M26.0989 20.3856C28.0233 20.3856 29.5833 21.9455 29.5833 23.8699C29.5833 26.4625 28.5171 28.5396 26.7676 29.9439C25.0457 31.326 22.7379 32.0001 20.2916 32.0001C17.8454 32.0001 15.5376 31.326 13.8157 29.9439C12.0661 28.5396 11 26.4625 11 23.8699C11 22.0588 12.3818 20.5704 14.1488 20.4015L14.4843 20.3856H26.0989ZM20.2916 8.771C22.8575 8.771 24.9375 10.851 24.9375 13.4168C24.9375 15.9826 22.8575 18.0626 20.2916 18.0626C17.7258 18.0626 15.6458 15.9826 15.6458 13.4168C15.6458 10.851 17.7258 8.771 20.2916 8.771Z" fill="white"/>
</svg>
